<mxfile host="app.diagrams.net" modified="2023-11-30T07:26:15.287Z" agent="Mozilla/5.0 (Windows NT 10.0; Win64; x64) AppleWebKit/537.36 (KHTML, like Gecko) Chrome/119.0.0.0 Safari/537.36 Edg/119.0.0.0" version="22.1.5" etag="W3c5zUK0c8n22oBOVVl9" type="github">
  <diagram name="第 1 页" id="7c8qTNGZ60hDIs-IYrjG">
    <mxGraphModel>
      <root>
        <mxCell id="0" />
        <mxCell id="1" parent="0" />
      </root>
    </mxGraphModel>
  </diagram>
</mxfile>
